<svg xmlns="http://www.w3.org/2000/svg" viewBox="0 0 96 96" role="img" aria-label="Coordinatez IT Solution mark">
  <defs>
    <linearGradient id="g" x1="10" y1="10" x2="86" y2="86" gradientUnits="userSpaceOnUse">
      <stop stop-color="#00a9c7"/>
      <stop offset="0.58" stop-color="#0f766e"/>
      <stop offset="1" stop-color="#ff6b4a"/>
    </linearGradient>
  </defs>
  <rect width="96" height="96" rx="18" fill="url(#g)"/>
  <path d="M27 35.5c3.9-5 9.6-7.5 17.1-7.5 6 0 11.1 1.8 15.2 5.3l-7.1 8.5c-2.3-1.9-4.8-2.8-7.6-2.8-3.4 0-6.1 1.1-8.1 3.4-2 2.2-3 5.2-3 8.9 0 3.8 1 6.8 3.1 9 2.1 2.2 4.9 3.3 8.4 3.3 3 0 5.8-1 8.4-3l6.5 8.6c-4.3 3.5-9.6 5.2-15.9 5.2-7.7 0-13.5-2.5-17.4-7.4-3.9-4.9-5.9-10.1-5.9-15.7 0-5.7 2.1-10.9 6.3-15.8Z" fill="#fff"/>
  <path d="M58.2 28.8h24.1v8.7L68.9 63.1h13.8v10.2H57.1v-8.8l13.5-25.5H58.2V28.8Z" fill="#fff" opacity=".88"/>
</svg>
